<?xml version="1.0" encoding="UTF-8"?>
<svg id="Layer_1" xmlns="http://www.w3.org/2000/svg" version="1.1" viewBox="0 0 3336 1760">
  <!-- Generator: Adobe Illustrator 29.7.1, SVG Export Plug-In . SVG Version: 2.1.1 Build 8)  -->
  <defs>
    <style>
      .st0 {
        fill: #be2605;
      }

      .st1 {
        fill: #d86705;
      }

      .st2 {
        fill: #241f20;
      }

      .st3 {
        fill: #d88e05;
      }
    </style>
  </defs>
  <path class="st2" d="M646.1,1554.1c-2.2-2.7-2.9-6.1-2.1-10l81.2-383.1c.8-4.3,2.8-7.8,6.2-10.6,3.3-2.7,7.2-4.1,11.5-4.1h47.7c7.4,0,12.7,3.7,15.9,11.2l68.9,210.7,158.3-210.7c5.9-7.4,12.6-11.2,20-11.2h47.1c4.3,0,7.5,1.4,9.7,4.1,2.2,2.7,2.8,6.3,2.1,10.6l-81.8,383.1c-.8,4.3-2.9,7.8-6.2,10.3-3.3,2.6-7,3.8-10.9,3.8h-50.6c-4.3,0-7.6-1.4-9.7-4.1-2.2-2.7-2.9-6.1-2.1-10l52.4-247.8-111.2,150.1c-3.9,4.3-7.6,7.6-10.9,9.7-3.3,2.2-7.2,3.2-11.5,3.2h-24.7c-8.6,0-14.3-4.3-17.1-12.9l-50.6-158.9-54.1,256.6c-.8,3.9-2.7,7.3-5.9,10-3.1,2.7-6.7,4.1-10.6,4.1h-51.2c-4.3,0-7.6-1.4-9.7-4.1Z"/>
  <path class="st2" d="M1139.1,1535.6c-22.2-19-33.3-45-33.3-78s.8-18.2,2.4-26.5c3.5-20.8,7.3-38.1,11.2-51.8,10.6-42,30.2-74.6,58.8-98,28.6-23.3,65.9-35,111.8-35s70.6,9.6,93,28.8c22.4,19.2,33.5,45.5,33.5,78.9s-.8,13.5-2.4,25.3c-5.9,28.2-9.6,45.5-11.2,51.8-11,42-30.6,74.6-58.8,98-28.2,23.3-65.7,35-112.4,35s-70.5-9.5-92.7-28.5ZM1290.9,1485.3c14.7-12.9,25.2-32,31.5-57.1,2.7-11,6.1-26.3,10-45.9,1.6-8.2,2.4-16.7,2.4-25.3,0-34.5-16.9-51.8-50.6-51.8s-38.5,6.7-53,20c-14.5,13.3-24.9,32.4-31.2,57.1-4.3,13.7-7.7,29-10,45.9-1.6,8.2-2.4,16.9-2.4,25.9,0,33.7,16.7,50.6,50,50.6s38.5-6.5,53.3-19.4Z"/>
  <path class="st2" d="M1480.7,1535.6c-17.7-19-26.5-44.8-26.5-77.4s1-20.6,2.9-33.5c1.6-11,4.3-23.9,8.2-38.8,10.6-42,28.5-75.7,53.8-101.2,25.3-25.5,57.8-38.3,97.4-38.3s38.9,3.5,53.3,10.6c14.3,7.1,25.2,16.5,32.7,28.2l27.7-130.6c.8-4.3,2.8-7.7,6.2-10.3,3.3-2.5,7-3.8,10.9-3.8h51.2c3.9,0,7,1.4,9.1,4.1,2.2,2.7,2.8,6.1,2.1,10l-83,389.6c-.8,3.9-2.7,7.3-5.9,10-3.1,2.7-6.7,4.1-10.6,4.1h-47.7c-4.3,0-7.6-1.4-9.7-4.1-2.2-2.7-2.9-6.1-2.1-10l4.7-21.8c-13.7,13.7-28,24.1-42.7,31.2-14.7,7.1-33.1,10.6-55,10.6-33.7,0-59.4-9.5-77.1-28.5ZM1642,1478.5c15.3-14.7,25.5-32.3,30.6-52.7,3.9-16.1,7.1-31.2,9.4-45.3,1.2-5.9,1.8-11.6,1.8-17.1,0-15.7-4.3-28.5-12.9-38.5-8.6-10-22.2-15-40.6-15s-39.2,7.2-53,21.5c-13.7,14.3-23.9,33.1-30.6,56.2-3.9,13.7-6.5,25.5-7.7,35.3-1.6,11.8-2.4,20-2.4,24.7,0,35.3,16.3,53,48.8,53s41.2-7.4,56.5-22.1Z"/>
  <path class="st2" d="M1844.4,1535.9c-20.4-18.8-30.6-45.7-30.6-80.6s1-25.3,2.9-35.9c.4-2.7,2.5-12.6,6.5-29.4,11.4-44.7,32.7-79.8,63.9-105.3,31.2-25.5,68.4-38.3,111.5-38.3s68.2,9.9,88,29.7c19.8,19.8,29.7,47,29.7,81.5s-1.6,27.7-4.7,44.1l-2.9,12.4c-.8,3.9-2.9,7.3-6.2,10-3.3,2.7-7.2,4.1-11.5,4.1h-194.8l-1.2,4.7c-1.2,7.1-1.8,13.7-1.8,20,0,16.5,4.2,29.9,12.7,40.3,8.4,10.4,20.7,15.6,36.8,15.6s42.6-9,60.6-27.1c4.3-4.3,7.7-7,10-7.9,2.4-1,5.9-1.5,10.6-1.5h51.8c3.5,0,6.3,1.2,8.2,3.5,2,2.4,2.5,5.3,1.8,8.8-2.7,9.4-11.1,20.4-25,33-13.9,12.6-32.2,23.4-54.7,32.7-22.6,9.2-47.4,13.8-74.4,13.8s-66.7-9.4-87.1-28.2ZM2035.7,1378.2v-1.2c1.6-7.4,2.4-15.1,2.4-23,0-16.5-4.3-29.5-12.9-39.1-8.6-9.6-21.2-14.4-37.7-14.4s-37.3,7-51.8,20.9c-14.5,13.9-24.1,32.5-28.8,55.6v1.2h128.9Z"/>
  <path class="st2" d="M2146,1554.1c-2.2-2.7-2.9-6.1-2.1-10l83.6-389.6c.8-4.3,2.7-7.7,5.9-10.3,3.1-2.5,6.7-3.8,10.6-3.8h50c3.9,0,7,1.4,9.1,4.1,2.2,2.7,2.8,6.1,2.1,10l-83,389.6c-.8,3.9-2.7,7.3-5.9,10-3.1,2.7-6.7,4.1-10.6,4.1h-50c-4.3,0-7.6-1.4-9.7-4.1Z"/>
  <path class="st2" d="M2342.9,1531.5c-26.3-21.8-39.4-52.5-39.4-92.1s1-24.5,2.9-34.7c4.7-28.2,12.2-63.2,22.4-104.8,12.6-51,35.4-90.3,68.6-118,33.1-27.7,76.8-41.5,130.9-41.5s58.2,4.8,81.5,14.4c23.3,9.6,41.4,23.2,54.1,40.6,12.7,17.5,19.1,37.6,19.1,60.3s-.6,13.9-1.8,21.8c-.8,3.5-2.4,6.5-4.7,8.8-2.4,2.4-5.3,3.5-8.8,3.5h-57.7c-5.1,0-8.8-1.1-11.2-3.2-2.4-2.2-3.5-6-3.5-11.5,2.7-44.3-21.4-66.5-72.4-66.5s-50.6,7.7-69.4,23c-18.8,15.3-32.2,39-40,71.2-8.2,32.2-15.3,65.1-21.2,98.9-2,12.6-2.9,22.4-2.9,29.4,0,43.2,23,64.7,68.9,64.7s44.5-5.1,61.8-15.3c17.3-10.2,31.2-27.3,41.8-51.2,2.7-5.5,5.5-9.3,8.2-11.5,2.7-2.2,6.5-3.2,11.2-3.2h57.7c3.5,0,6.3,1.2,8.2,3.5,2,2.4,2.5,5.3,1.8,8.8-10.6,41.2-32.5,74.4-65.6,99.5-33.2,25.1-76.6,37.7-130.4,37.7s-83.8-10.9-110-32.7Z"/>
  <path class="st2" d="M2724.9,1535.9c-17.3-18.8-25.9-44.5-25.9-77.1s1-21.2,2.9-34.1c1.6-11,4.3-23.9,8.2-38.8,11-42.4,29-76.2,54.1-101.5,25.1-25.3,57.9-38,98.3-38s40.6,3.4,53.6,10.3c12.9,6.9,23.3,16.6,31.2,29.1l4.1-19.4c.8-4.3,2.8-7.7,6.2-10.3,3.3-2.5,7-3.8,10.9-3.8h47.1c4.3,0,7.6,1.4,9.7,4.1,2.2,2.7,2.8,6.1,2.1,10l-58.9,277.8c-.8,4.3-2.9,7.8-6.2,10.3-3.3,2.6-7,3.8-10.9,3.8h-47.1c-4.3,0-7.6-1.4-9.7-4.1-2.2-2.7-2.9-6.1-2.1-10l4.7-21.8c-13.7,13.7-27.8,24.1-42.1,31.2-14.3,7.1-32.3,10.6-53.8,10.6-33.7,0-59.2-9.4-76.5-28.2ZM2884.4,1478.8c14.9-14.5,24.9-32.2,30-53,3.9-16.1,7.1-31.2,9.4-45.3,1.2-6.7,1.8-12.9,1.8-18.8,0-15.3-4.1-27.8-12.4-37.4-8.2-9.6-21.4-14.4-39.4-14.4-39.6,0-67.1,25.9-82.4,77.7-3.1,10.6-5.7,22.4-7.7,35.3-1.6,11.8-2.4,20.4-2.4,25.9,0,16.5,3.5,29.2,10.6,38.3,7.1,9,19.2,13.5,36.5,13.5s41-7.3,55.9-21.8Z"/>
  <path class="st2" d="M3121.2,1539.7c-15.5-12.4-23.2-30.9-23.2-55.6s1.4-23.7,4.1-35.9l28.8-133h-46.5c-4.3,0-7.5-1.4-9.4-4.1-2-2.7-2.6-6.1-1.8-10l7.1-34.7c.8-3.9,2.8-7.3,6.2-10,3.3-2.7,7.2-4.1,11.5-4.1h45.9l21.2-97.7c.8-4.3,2.7-7.7,5.9-10.3,3.1-2.5,6.7-3.8,10.6-3.8h48.8c4.3,0,7.5,1.4,9.7,4.1,2.2,2.7,2.8,6.1,2.1,10l-21.2,97.7h73.6c4.3,0,7.4,1.4,9.4,4.1,2,2.7,2.5,6.1,1.8,10l-7.7,34.7c-.4,3.9-2.3,7.3-5.6,10-3.3,2.7-7.2,4.1-11.5,4.1h-73l-27.7,126.5c-2.4,10.6-3.5,19.6-3.5,27.1s2.2,14.3,6.5,18.2c4.3,3.9,11.8,5.9,22.4,5.9h43c4.3,0,7.4,1.4,9.4,4.1,2,2.7,2.5,6.1,1.8,10l-7.7,37.1c-.8,4.3-2.8,7.8-6.2,10.3-3.3,2.6-7,3.8-10.9,3.8h-41.8c-32.6,0-56.6-6.2-72.1-18.5Z"/>
  <path class="st0" d="M685.9,848.4c29.2-20.6,52-91.6,56.9-130.7,4.5-35.8,3.5-74.2,10.8-109.5,9.9-47.9,32.8-91.5,74.6-116.6,1.8-1.1,10.5-4.7,10.8,9.5.3,12.6.7,26.4,2.3,38.2.9,6.9,1.3,21,5.9,27.2,11.7,15.6,29,12.5,44.7,15.4,9.8,1.8,27.6,6.9,41.6,19,13.7,11.8,24.3,32.9,35.8,41,7.8,5.5,25.3-2.7,31.7,6.8,5,7.5,5.4,27.1,4,36.6-1.3,8.8-4.8,23.1-12.3,30.6-20.4,20.4-58,25.8-75.2,43.4-9.9,10.2-18,23.7-20.2,34.2-2.2,10.5-2,24.9,3.5,33.7,1.5,2.5,6.2,6.7,9.1,7.4,51.9,12.4,99.9-66.8,136.9-105.1,16.9-17.5,49.8-49.9,75-53.1,16.2-2.1,31.3-1,42,12.2,5.2,6.3,5.5,14.1,3.4,22-2.1,8-9.5,15.8-14.2,19.3-18.9,14.1-39.4,8.4-61.4,20.2-5.9,3.1-16.6,13-21.4,20-10.5,15.2-22.1,40.4-31.4,57.5-30,55-45.8,100.6-113.4,118.8-62.8,16.9-120.2,21.1-181.7,43.8-111.2,40.9-128.8,113-172.2,211.2-26.4,59.7-62.2,134.2-107.9,181.4-39.7,41.1-97.3,57.8-131.3,105.2-18,25.1-29.1,49.4-42.3,76.3-17.4,35.5-32.5,63.4-43,101.3-7.6,27.5-10,78.1-39.1,87.2-8.6,2.7-19.2.1-26.9-5.3-12.1-8.5-20.7-28.1-18.1-44.2,3.1-19.6,9.8-39.3,18.8-58.8,6.3-13.7,13.9-25,20-37.9,14.2-30.1,32.1-68.2,42.3-99.8,12.2-37.7,22.5-75.7,31.1-109.5,17.7-69.6,80-84,103.6-147.5,15.3-41.1,16.7-84.8,20.8-127.9,3-31.9,6.8-64.2,18.8-93.6,1.5-3.7,2.7-10.4,2.7-10.4,0,0-.1,0-.2.1-34.8,24.6-68.3,59.1-118.3,142-62.6,103.6-93.3,141.7-168.1,160.3-7.9,2-15.9,3-23.7,3-25.7,0-50.3-10.5-69.8-30.3-27-27.3-39.3-67.7-30.7-100.6,9.1-34.8,32.9-59.1,62-63.6,24.8-3.8,48.4,8,63.3,31.5,3.8,6.1,2,14.1-4,17.9-6.1,3.8-14.1,2-17.9-4.1-9.3-14.8-22.9-21.9-37.3-19.7-18.8,2.9-34.4,20-40.8,44.5-6.4,24.3,3.3,54.7,24.1,75.7,11.1,11.2,34.8,28.8,68.8,20.3,64.7-16.2,93.2-61.5,151.6-162.4,32.6-56.3,51.6-96.8,83.3-126,36.4-33.5,74.4-56.3,132.2-79.4,47.9-19.2,126.2-33.1,190.8-78.8Z"/>
  <path class="st2" d="M1113.2,266.7c77.2-16.1,90.2-29.1,106.3-106.3,16.1,77.2,29.1,90.2,106.3,106.3-77.2,16.1-90.2,29.1-106.3,106.3-16.1-77.2-29.1-90.2-106.3-106.3Z"/>
  <path class="st1" d="M1113.2,552c77.2-16.1,90.2-29.1,106.3-106.3,16.1,77.2,29.1,90.2,106.3,106.3-77.2,16.1-90.2,29.1-106.3,106.3-16.1-77.2-29.1-90.2-106.3-106.3Z"/>
  <path class="st3" d="M898.3,409.4c105.7-22,123.6-39.9,145.6-145.6,22,105.7,39.9,123.6,145.6,145.6-105.7,22-123.6,39.9-145.6,145.6-22-105.7-39.9-123.6-145.6-145.6Z"/>
</svg>